<?xml version="1.0" encoding="utf-8"?>
<!-- Generator: Adobe Illustrator 27.6.1, SVG Export Plug-In . SVG Version: 6.00 Build 0)  -->
<svg version="1.1" id="Layer_1" xmlns:ev="http://www.w3.org/2001/xml-events"
	 xmlns="http://www.w3.org/2000/svg" xmlns:xlink="http://www.w3.org/1999/xlink" x="0px" y="0px" viewBox="0 0 766 683"
	 style="enable-background:new 0 0 766 683;" xml:space="preserve">
<style type="text/css">
	.st0{fill:none;stroke:#CCCCCC;stroke-width:0.853;stroke-linecap:round;stroke-miterlimit:2.8435;}
	.st1{fill:#666666;}
	.st2{font-family:'Helvetica';}
	.st3{font-size:3.9808px;}
</style>
<g transform="matrix(0.2843453148946436, 0, 0, 0.2843453148946436, 334.94751100504465, 336.75851164672326)">
	<g>
		<path class="st0" d="M563.3-660.4l-90.6,355.5"/>
	</g>
</g>
<g transform="matrix(0.2843453148946436, 0, 0, 0.2843453148946436, 334.94751100504465, 336.75851164672326)">
	<g>
		<path class="st0" d="M557.7-664.5L-5.8-319"/>
	</g>
</g>
<g transform="matrix(0.2843453148946436, 0, 0, 0.2843453148946436, 334.94751100504465, 336.75851164672326)">
	<g>
		<path class="st0" d="M561.5-661L388.7-303.9"/>
	</g>
</g>
<g transform="matrix(0.2843453148946436, 0, 0, 0.2843453148946436, 334.94751100504465, 336.75851164672326)">
	<g>
		<path class="st0" d="M-503.3-657.6l-310.1,347.8"/>
	</g>
</g>
<g transform="matrix(0.2843453148946436, 0, 0, 0.2843453148946436, 334.94751100504465, 336.75851164672326)">
	<g>
		<path class="st0" d="M-501.5-656.3l-224.5,339"/>
	</g>
</g>
<g transform="matrix(0.2843453148946436, 0, 0, 0.2843453148946436, 334.94751100504465, 336.75851164672326)">
	<g>
		<path class="st0" d="M-478-664L529.1-301.4"/>
	</g>
</g>
<g transform="matrix(0.2843453148946436, 0, 0, 0.2843453148946436, 334.94751100504465, 336.75851164672326)">
	<g>
		<path class="st0" d="M-480.8-659.2l391,333.6"/>
	</g>
</g>
<g transform="matrix(0.2843453148946436, 0, 0, 0.2843453148946436, 334.94751100504465, 336.75851164672326)">
	<g>
		<path class="st0" d="M-480-660.2l493.1,352"/>
	</g>
</g>
<g transform="matrix(0.2843453148946436, 0, 0, 0.2843453148946436, 334.94751100504465, 336.75851164672326)">
	<g>
		<path class="st0" d="M-495.9-654l-67.3,330.1"/>
	</g>
</g>
<g transform="matrix(0.2843453148946436, 0, 0, 0.2843453148946436, 334.94751100504465, 336.75851164672326)">
	<g>
		<path class="st0" d="M517.3-665.4L-6.7-320.4"/>
	</g>
</g>
<g transform="matrix(0.2843453148946436, 0, 0, 0.2843453148946436, 334.94751100504465, 336.75851164672326)">
	<g>
		<path class="st0" d="M520.7-662.7L387.5-304.4"/>
	</g>
</g>
<g transform="matrix(0.2843453148946436, 0, 0, 0.2843453148946436, 334.94751100504465, 336.75851164672326)">
	<g>
		<path class="st0" d="M-522-660.7L12.6-307.4"/>
	</g>
</g>
<g transform="matrix(0.2843453148946436, 0, 0, 0.2843453148946436, 334.94751100504465, 336.75851164672326)">
	<g>
		<path class="st0" d="M-520.3-664.2L529-301"/>
	</g>
</g>
<g transform="matrix(0.2843453148946436, 0, 0, 0.2843453148946436, 334.94751100504465, 336.75851164672326)">
	<g>
		<path class="st0" d="M-522.7-659.7l431.4,336"/>
	</g>
</g>
<g transform="matrix(0.2843453148946436, 0, 0, 0.2843453148946436, 334.94751100504465, 336.75851164672326)">
	<g>
		<path class="st0" d="M-536.6-653.7l-30.2,329.3"/>
	</g>
</g>
<g transform="matrix(0.2843453148946436, 0, 0, 0.2843453148946436, 334.94751100504465, 336.75851164672326)">
	<g>
		<path class="st0" d="M-544.8-657l-269.8,346.1"/>
	</g>
</g>
<g transform="matrix(0.2843453148946436, 0, 0, 0.2843453148946436, 334.94751100504465, 336.75851164672326)">
	<g>
		<path class="st0" d="M-542.7-655.6l-185.4,337"/>
	</g>
</g>
<g transform="matrix(0.2843453148946436, 0, 0, 0.2843453148946436, 334.94751100504465, 336.75851164672326)">
	<g>
		<path class="st0" d="M476.8-666.5L-7.7-321.9"/>
	</g>
</g>
<g transform="matrix(0.2843453148946436, 0, 0, 0.2843453148946436, 334.94751100504465, 336.75851164672326)">
	<g>
		<path class="st0" d="M-586.5-659.3L-897.1-313"/>
	</g>
</g>
<g transform="matrix(0.2843453148946436, 0, 0, 0.2843453148946436, 334.94751100504465, 336.75851164672326)">
	<g>
		<path class="st0" d="M-565.9-662.3l578,355.6"/>
	</g>
</g>
<g transform="matrix(0.2843453148946436, 0, 0, 0.2843453148946436, 334.94751100504465, 336.75851164672326)">
	<g>
		<path class="st0" d="M-566.4-661.5l473.8,339.4"/>
	</g>
</g>
<g transform="matrix(0.2843453148946436, 0, 0, 0.2843453148946436, 334.94751100504465, 336.75851164672326)">
	<g>
		<path class="st0" d="M-585-658.1l-231.1,346.2"/>
	</g>
</g>
<g transform="matrix(0.2843453148946436, 0, 0, 0.2843453148946436, 334.94751100504465, 336.75851164672326)">
	<g>
		<path class="st0" d="M-577.2-655.8l6.8,331.3"/>
	</g>
</g>
<g transform="matrix(0.2843453148946436, 0, 0, 0.2843453148946436, 334.94751100504465, 336.75851164672326)">
	<g>
		<path class="st0" d="M439.3-660.1l28.9,354.9"/>
	</g>
</g>
<g transform="matrix(0.2843453148946436, 0, 0, 0.2843453148946436, 334.94751100504465, 336.75851164672326)">
	<g>
		<path class="st0" d="M431.2-663.7L-9-323.6"/>
	</g>
</g>
<g transform="matrix(0.2843453148946436, 0, 0, 0.2843453148946436, 334.94751100504465, 336.75851164672326)">
	<g>
		<path class="st0" d="M437.2-660.2l-52.5,355.1"/>
	</g>
</g>
<g transform="matrix(0.2843453148946436, 0, 0, 0.2843453148946436, 334.94751100504465, 336.75851164672326)">
	<g>
		<path class="st0" d="M-604.9-659.5l511.3,339"/>
	</g>
</g>
<g transform="matrix(0.2843453148946436, 0, 0, 0.2843453148946436, 334.94751100504465, 336.75851164672326)">
	<g>
		<path class="st0" d="M-617.5-651.7l43.4,327.4"/>
	</g>
</g>
<g transform="matrix(0.2843453148946436, 0, 0, 0.2843453148946436, 334.94751100504465, 336.75851164672326)">
	<g>
		<path class="st0" d="M-630.8-655.3l-267.7,341.2"/>
	</g>
</g>
<g transform="matrix(0.2843453148946436, 0, 0, 0.2843453148946436, 334.94751100504465, 336.75851164672326)">
	<g>
		<path class="st0" d="M-628.5-653.8l-189.3,340.8"/>
	</g>
</g>
<g transform="matrix(0.2843453148946436, 0, 0, 0.2843453148946436, 334.94751100504465, 336.75851164672326)">
	<g>
		<path class="st0" d="M-625.3-652.4l-108.1,331.5"/>
	</g>
</g>
<g transform="matrix(0.2843453148946436, 0, 0, 0.2843453148946436, 334.94751100504465, 336.75851164672326)">
	<g>
		<path class="st0" d="M-602.8-663.9L528.8-300.4"/>
	</g>
</g>
<g transform="matrix(0.2843453148946436, 0, 0, 0.2843453148946436, 334.94751100504465, 336.75851164672326)">
	<g>
		<path class="st0" d="M-604.3-660.5l616,354.5"/>
	</g>
</g>
<g transform="matrix(0.2843453148946436, 0, 0, 0.2843453148946436, 334.94751100504465, 336.75851164672326)">
	<g>
		<path class="st0" d="M357.3-663.1l185.2,346.2"/>
	</g>
</g>
<g transform="matrix(0.2843453148946436, 0, 0, 0.2843453148946436, 334.94751100504465, 336.75851164672326)">
	<g>
		<path class="st0" d="M348.7-664.5L-12.1-327.3"/>
	</g>
</g>
<g transform="matrix(0.2843453148946436, 0, 0, 0.2843453148946436, 334.94751100504465, 336.75851164672326)">
	<g>
		<path class="st0" d="M398.2-664.8L544.8-318"/>
	</g>
</g>
<g transform="matrix(0.2843453148946436, 0, 0, 0.2843453148946436, 334.94751100504465, 336.75851164672326)">
	<g>
		<path class="st0" d="M606.9-662.3L559.8-320"/>
	</g>
</g>
<g transform="matrix(0.2843453148946436, 0, 0, 0.2843453148946436, 334.94751100504465, 336.75851164672326)">
	<g>
		<path class="st0" d="M771.5-659.5L570.4-316.3"/>
	</g>
</g>
<g transform="matrix(0.2843453148946436, 0, 0, 0.2843453148946436, 334.94751100504465, 336.75851164672326)">
	<g>
		<path class="st0" d="M648-660.4l-85.1,341"/>
	</g>
</g>
<g transform="matrix(0.2843453148946436, 0, 0, 0.2843453148946436, 334.94751100504465, 336.75851164672326)">
	<g>
		<path class="st0" d="M-188.2-665.2l718.6,360.7"/>
	</g>
</g>
<g transform="matrix(0.2843453148946436, 0, 0, 0.2843453148946436, 334.94751100504465, 336.75851164672326)">
	<g>
		<path class="st0" d="M688-656.6L565.7-318.6"/>
	</g>
</g>
<g transform="matrix(0.2843453148946436, 0, 0, 0.2843453148946436, 334.94751100504465, 336.75851164672326)">
	<g>
		<path class="st0" d="M730-659L568.2-317.5"/>
	</g>
</g>
<g transform="matrix(0.2843453148946436, 0, 0, 0.2843453148946436, 334.94751100504465, 336.75851164672326)">
	<g>
		<path class="st0" d="M-645.1-664.1L528.7-300.2"/>
	</g>
</g>
<g transform="matrix(0.2843453148946436, 0, 0, 0.2843453148946436, 334.94751100504465, 336.75851164672326)">
	<g>
		<path class="st0" d="M-657.9-652l80.3,328.4"/>
	</g>
</g>
<g transform="matrix(0.2843453148946436, 0, 0, 0.2843453148946436, 334.94751100504465, 336.75851164672326)">
	<g>
		<path class="st0" d="M-661.9-651.5l5.3,348.4"/>
	</g>
</g>
<g transform="matrix(0.2843453148946436, 0, 0, 0.2843453148946436, 334.94751100504465, 336.75851164672326)">
	<g>
		<path class="st0" d="M-665.9-651.9l-70.7,330.2"/>
	</g>
</g>
<g transform="matrix(0.2843453148946436, 0, 0, 0.2843453148946436, 334.94751100504465, 336.75851164672326)">
	<g>
		<path class="st0" d="M-672.1-654.6l-228.1,339.2"/>
	</g>
</g>
<g transform="matrix(0.2843453148946436, 0, 0, 0.2843453148946436, 334.94751100504465, 336.75851164672326)">
	<g>
		<path class="st0" d="M-646.4-660.9L11.3-305.3"/>
	</g>
</g>
<g transform="matrix(0.2843453148946436, 0, 0, 0.2843453148946436, 334.94751100504465, 336.75851164672326)">
	<g>
		<path class="st0" d="M-646.9-660l552.4,340.9"/>
	</g>
</g>
<g transform="matrix(0.2843453148946436, 0, 0, 0.2843453148946436, 334.94751100504465, 336.75851164672326)">
	<g>
		<path class="st0" d="M271.3-662.5l107.6,357.8"/>
	</g>
</g>
<g transform="matrix(0.2843453148946436, 0, 0, 0.2843453148946436, 334.94751100504465, 336.75851164672326)">
	<g>
		<path class="st0" d="M272.6-663.1L463-303.7"/>
	</g>
</g>
<g transform="matrix(0.2843453148946436, 0, 0, 0.2843453148946436, 334.94751100504465, 336.75851164672326)">
	<g>
		<path class="st0" d="M-742.9-661l159.2,339.5"/>
	</g>
</g>
<g transform="matrix(0.2843453148946436, 0, 0, 0.2843453148946436, 334.94751100504465, 336.75851164672326)">
	<g>
		<path class="st0" d="M-750.6-660.9l-153.9,343.1"/>
	</g>
</g>
<g transform="matrix(0.2843453148946436, 0, 0, 0.2843453148946436, 334.94751100504465, 336.75851164672326)">
	<g>
		<path class="st0" d="M-738.4-665.3L10.7-304.1"/>
	</g>
</g>
<g transform="matrix(0.2843453148946436, 0, 0, 0.2843453148946436, 334.94751100504465, 336.75851164672326)">
	<g>
		<path class="st0" d="M222.7-663.6l-242,329.9"/>
	</g>
</g>
<g transform="matrix(0.2843453148946436, 0, 0, 0.2843453148946436, 334.94751100504465, 336.75851164672326)">
	<g>
		<path class="st0" d="M230.8-663.4L462-303.1"/>
	</g>
</g>
<g transform="matrix(0.2843453148946436, 0, 0, 0.2843453148946436, 334.94751100504465, 336.75851164672326)">
	<g>
		<path class="st0" d="M-705.4-660.1l-34.4,337.9"/>
	</g>
</g>
<g transform="matrix(0.2843453148946436, 0, 0, 0.2843453148946436, 334.94751100504465, 336.75851164672326)">
	<g>
		<path class="st0" d="M-709-661.3l-193.2,344.7"/>
	</g>
</g>
<g transform="matrix(0.2843453148946436, 0, 0, 0.2843453148946436, 334.94751100504465, 336.75851164672326)">
	<g>
		<path class="st0" d="M-701.4-660.6l120.5,338"/>
	</g>
</g>
<g transform="matrix(0.2843453148946436, 0, 0, 0.2843453148946436, 334.94751100504465, 336.75851164672326)">
	<g>
		<path class="st0" d="M190.1-662l271,359.4"/>
	</g>
</g>
<g transform="matrix(0.2843453148946436, 0, 0, 0.2843453148946436, 334.94751100504465, 336.75851164672326)">
	<g>
		<path class="st0" d="M-119.4-664.1L-647-298.2"/>
	</g>
</g>
<g transform="matrix(0.2843453148946436, 0, 0, 0.2843453148946436, 334.94751100504465, 336.75851164672326)">
	<g>
		<path class="st0" d="M-826.7-659l165.5,356.9"/>
	</g>
</g>
<g transform="matrix(0.2843453148946436, 0, 0, 0.2843453148946436, 334.94751100504465, 336.75851164672326)">
	<g>
		<path class="st0" d="M-331-660.8l-317.8,360.5"/>
	</g>
</g>
<g transform="matrix(0.2843453148946436, 0, 0, 0.2843453148946436, 334.94751100504465, 336.75851164672326)">
	<g>
		<path class="st0" d="M188.9-661.1l187.6,357.4"/>
	</g>
</g>
<g transform="matrix(0.2843453148946436, 0, 0, 0.2843453148946436, 334.94751100504465, 336.75851164672326)">
	<g>
		<path class="st0" d="M-834-658.2l-75.9,338.6"/>
	</g>
</g>
<g transform="matrix(0.2843453148946436, 0, 0, 0.2843453148946436, 334.94751100504465, 336.75851164672326)">
	<g>
		<path class="st0" d="M-821-664.8L10.2-303.1"/>
	</g>
</g>
<g transform="matrix(0.2843453148946436, 0, 0, 0.2843453148946436, 334.94751100504465, 336.75851164672326)">
	<g>
		<path class="st0" d="M-825-660l236.5,341.3"/>
	</g>
</g>
<g transform="matrix(0.2843453148946436, 0, 0, 0.2843453148946436, 334.94751100504465, 336.75851164672326)">
	<g>
		<path class="st0" d="M179.7-661.5L-22.7-336"/>
	</g>
</g>
<g transform="matrix(0.2843453148946436, 0, 0, 0.2843453148946436, 334.94751100504465, 336.75851164672326)">
	<g>
		<path class="st0" d="M-108.4-660.7L26-318.3"/>
	</g>
</g>
<g transform="matrix(0.2843453148946436, 0, 0, 0.2843453148946436, 334.94751100504465, 336.75851164672326)">
	<g>
		<path class="st0" d="M-439.7-661.1L13.8-309.2"/>
	</g>
</g>
<g transform="matrix(0.2843453148946436, 0, 0, 0.2843453148946436, 334.94751100504465, 336.75851164672326)">
	<g>
		<path class="st0" d="M-315.6-661.1L16.7-312.4"/>
	</g>
</g>
<g transform="matrix(0.2843453148946436, 0, 0, 0.2843453148946436, 334.94751100504465, 336.75851164672326)">
	<g>
		<path class="st0" d="M642.3-664.5L60.7-306.7"/>
	</g>
</g>
<g transform="matrix(0.2843453148946436, 0, 0, 0.2843453148946436, 334.94751100504465, 336.75851164672326)">
	<g>
		<path class="st0" d="M-859.3-663.3L10-302.6"/>
	</g>
</g>
<g transform="matrix(0.2843453148946436, 0, 0, 0.2843453148946436, 334.94751100504465, 336.75851164672326)">
	<g>
		<path class="st0" d="M135.7-666.6l-850.4,362.8"/>
	</g>
</g>
<g transform="matrix(0.2843453148946436, 0, 0, 0.2843453148946436, 334.94751100504465, 336.75851164672326)">
	<g>
		<path class="st0" d="M138-663.6l-270.5,366.2"/>
	</g>
</g>
<g transform="matrix(0.2843453148946436, 0, 0, 0.2843453148946436, 334.94751100504465, 336.75851164672326)">
	<g>
		<path class="st0" d="M679.6-665.5L-538.3-301.1"/>
	</g>
</g>
<g transform="matrix(0.2843453148946436, 0, 0, 0.2843453148946436, 334.94751100504465, 336.75851164672326)">
	<g>
		<path class="st0" d="M-372.2-657.4l-181.9,336.8"/>
	</g>
</g>
<g transform="matrix(0.2843453148946436, 0, 0, 0.2843453148946436, 334.94751100504465, 336.75851164672326)">
	<g>
		<path class="st0" d="M-454.6-656.4L-559.9-323"/>
	</g>
</g>
<g transform="matrix(0.2843453148946436, 0, 0, 0.2843453148946436, 334.94751100504465, 336.75851164672326)">
	<g>
		<path class="st0" d="M47.8-663.5l-589.4,354.8"/>
	</g>
</g>
<g transform="matrix(0.2843453148946436, 0, 0, 0.2843453148946436, 334.94751100504465, 336.75851164672326)">
	<g>
		<path class="st0" d="M-864-657.1l273.6,339.8"/>
	</g>
</g>
<g transform="matrix(0.2843453148946436, 0, 0, 0.2843453148946436, 334.94751100504465, 336.75851164672326)">
	<g>
		<path class="st0" d="M-290.7-656.9l-259.2,339.1"/>
	</g>
</g>
<g transform="matrix(0.2843453148946436, 0, 0, 0.2843453148946436, 334.94751100504465, 336.75851164672326)">
	<g>
		<path class="st0" d="M97.2-665.1L-133-297.7"/>
	</g>
</g>
<g transform="matrix(0.2843453148946436, 0, 0, 0.2843453148946436, 334.94751100504465, 336.75851164672326)">
	<g>
		<path class="st0" d="M-414.3-662.4l-308.3,347.7"/>
	</g>
</g>
<g transform="matrix(0.2843453148946436, 0, 0, 0.2843453148946436, 334.94751100504465, 336.75851164672326)">
	<g>
		<path class="st0" d="M-868.7-654.5L-753-320.7"/>
	</g>
</g>
<g transform="matrix(0.2843453148946436, 0, 0, 0.2843453148946436, 334.94751100504465, 336.75851164672326)">
	<g>
		<path class="st0" d="M-458.8-658.6L-724.2-316"/>
	</g>
</g>
<g transform="matrix(0.2843453148946436, 0, 0, 0.2843453148946436, 334.94751100504465, 336.75851164672326)">
	<g>
		<path class="st0" d="M-293.3-659.4l-425.9,348.3"/>
	</g>
</g>
<g transform="matrix(0.2843453148946436, 0, 0, 0.2843453148946436, 334.94751100504465, 336.75851164672326)">
	<g>
		<path class="st0" d="M-33.4-666l-682.4,360"/>
	</g>
</g>
<g transform="matrix(0.2843453148946436, 0, 0, 0.2843453148946436, 334.94751100504465, 336.75851164672326)">
	<g>
		<path class="st0" d="M47.2-664.5l-762.4,359.7"/>
	</g>
</g>
<g transform="matrix(0.2843453148946436, 0, 0, 0.2843453148946436, 334.94751100504465, 336.75851164672326)">
	<g>
		<path class="st0" d="M679.5-665.9L-713.3-299.5"/>
	</g>
</g>
<g transform="matrix(0.2843453148946436, 0, 0, 0.2843453148946436, 334.94751100504465, 336.75851164672326)">
	<g>
		<path class="st0" d="M-872-653.8l39.6,338"/>
	</g>
</g>
<g transform="matrix(0.2843453148946436, 0, 0, 0.2843453148946436, 334.94751100504465, 336.75851164672326)">
	<g>
		<path class="st0" d="M-33.6-666.3l-774,364.3"/>
	</g>
</g>
<g transform="matrix(0.2843453148946436, 0, 0, 0.2843453148946436, 334.94751100504465, 336.75851164672326)">
	<g>
		<path class="st0" d="M-415-663.2l-396.4,355.3"/>
	</g>
</g>
<g transform="matrix(0.2843453148946436, 0, 0, 0.2843453148946436, 334.94751100504465, 336.75851164672326)">
	<g>
		<path class="st0" d="M47-664.9l-854.2,363.7"/>
	</g>
</g>
<g transform="matrix(0.2843453148946436, 0, 0, 0.2843453148946436, 334.94751100504465, 336.75851164672326)">
	<g>
		<path class="st0" d="M-294.1-660.5l-515.5,355"/>
	</g>
</g>
<g transform="matrix(0.2843453148946436, 0, 0, 0.2843453148946436, 334.94751100504465, 336.75851164672326)">
	<g>
		<path class="st0" d="M-376.3-660.8L-810.7-307"/>
	</g>
</g>
<g transform="matrix(0.2843453148946436, 0, 0, 0.2843453148946436, 334.94751100504465, 336.75851164672326)">
	<g>
		<path class="st0" d="M315.8-666.7l580.5,371.1"/>
	</g>
</g>
<g transform="matrix(0.2843453148946436, 0, 0, 0.2843453148946436, 334.94751100504465, 336.75851164672326)">
	<g>
		<path class="st0" d="M68-664.7l827.8,370.1"/>
	</g>
</g>
<g transform="matrix(0.2843453148946436, 0, 0, 0.2843453148946436, 334.94751100504465, 336.75851164672326)">
	<g>
		<path class="st0" d="M-377-661.7l-515.6,353.8"/>
	</g>
</g>
<g transform="matrix(0.2843453148946436, 0, 0, 0.2843453148946436, 334.94751100504465, 336.75851164672326)">
	<g>
		<path class="st0" d="M-294.6-661.3l-597,355"/>
	</g>
</g>
<g transform="matrix(0.2843453148946436, 0, 0, 0.2843453148946436, 334.94751100504465, 336.75851164672326)">
	<g>
		<path class="st0" d="M-875.6-653.8L-913-320.1"/>
	</g>
</g>
<g transform="matrix(0.2843453148946436, 0, 0, 0.2843453148946436, 334.94751100504465, 336.75851164672326)">
	<g>
		<path class="st0" d="M-74-667.3l-816,364"/>
	</g>
</g>
<g transform="matrix(0.2843453148946436, 0, 0, 0.2843453148946436, 334.94751100504465, 336.75851164672326)">
	<g>
		<path class="st0" d="M-415.6-663.8l-477.6,355.1"/>
	</g>
</g>
<g transform="matrix(0.2843453148946436, 0, 0, 0.2843453148946436, 334.94751100504465, 336.75851164672326)">
	<g>
		<path class="st0" d="M-461-660.8l-433,351.1"/>
	</g>
</g>
<g transform="matrix(0.2843453148946436, 0, 0, 0.2843453148946436, 334.94751100504465, 336.75851164672326)">
	<g>
		<path class="st0" d="M-859.5-662.8l761.9,349.4"/>
	</g>
</g>
<g transform="matrix(0.2843453148946436, 0, 0, 0.2843453148946436, 334.94751100504465, 336.75851164672326)">
	<g>
		<path class="st0" d="M11.4-663.3l-232.1,367.4"/>
	</g>
</g>
<g transform="matrix(0.2843453148946436, 0, 0, 0.2843453148946436, 334.94751100504465, 336.75851164672326)">
	<g>
		<path class="st0" d="M-105.8-662.3l303.8,357"/>
	</g>
</g>
<g transform="matrix(0.2843453148946436, 0, 0, 0.2843453148946436, 334.94751100504465, 336.75851164672326)">
	<g>
		<path class="st0" d="M767.7-663L224.4-301.6"/>
	</g>
</g>
<g transform="matrix(0.2843453148946436, 0, 0, 0.2843453148946436, 334.94751100504465, 336.75851164672326)">
	<g>
		<path class="st0" d="M-189.7-663l386.2,359.2"/>
	</g>
</g>
<g transform="matrix(0.2843453148946436, 0, 0, 0.2843453148946436, 334.94751100504465, 336.75851164672326)">
	<g>
		<path class="st0" d="M-231.7-663.4l427.6,360.2"/>
	</g>
</g>
<g transform="matrix(0.2843453148946436, 0, 0, 0.2843453148946436, 334.94751100504465, 336.75851164672326)">
	<g>
		<path class="st0" d="M-149.2-664.2l346.4,359.7"/>
	</g>
</g>
<g transform="matrix(0.2843453148946436, 0, 0, 0.2843453148946436, 334.94751100504465, 336.75851164672326)">
	<g>
		<path class="st0" d="M18.5-663l182.9,355.4"/>
	</g>
</g>
<g transform="matrix(0.2843453148946436, 0, 0, 0.2843453148946436, 334.94751100504465, 336.75851164672326)">
	<g>
		<path class="st0" d="M-907.3-666.4l1100,369"/>
	</g>
</g>
<g transform="matrix(0.2843453148946436, 0, 0, 0.2843453148946436, 334.94751100504465, 336.75851164672326)">
	<g>
		<path class="st0" d="M988.9-664.4v365.5"/>
	</g>
</g>
<g transform="matrix(0.2843453148946436, 0, 0, 0.2843453148946436, 334.94751100504465, 336.75851164672326)">
	<g>
		<path class="st0" d="M-440.6-660.1l352.5,332.6"/>
	</g>
</g>
<g transform="matrix(0.2843453148946436, 0, 0, 0.2843453148946436, 334.94751100504465, 336.75851164672326)">
	<g>
		<path class="st0" d="M-907.6-665.7L-98-312.5"/>
	</g>
</g>
<g transform="matrix(0.2843453148946436, 0, 0, 0.2843453148946436, 334.94751100504465, 336.75851164672326)">
	<g>
		<path class="st0" d="M766.8-664.6L-2.8-313.3"/>
	</g>
</g>
<g transform="matrix(0.2843453148946436, 0, 0, 0.2843453148946436, 334.94751100504465, 336.75851164672326)">
	<g>
		<path class="st0" d="M680.5-663.2L-3.7-315.3"/>
	</g>
</g>
<g transform="matrix(0.2843453148946436, 0, 0, 0.2843453148946436, 334.94751100504465, 336.75851164672326)">
	<g>
		<path class="st0" d="M-357.1-659l273.5,327.3"/>
	</g>
</g>
<g transform="matrix(0.2843453148946436, 0, 0, 0.2843453148946436, 334.94751100504465, 336.75851164672326)">
	<g>
		<path class="st0" d="M-272.9-656l195.5,319.8"/>
	</g>
</g>
<g transform="matrix(0.2843453148946436, 0, 0, 0.2843453148946436, 334.94751100504465, 336.75851164672326)">
	<g>
		<path class="st0" d="M601.7-665.8L-5-317.6"/>
	</g>
</g>
<g transform="matrix(0.2843453148946436, 0, 0, 0.2843453148946436, 334.94751100504465, 336.75851164672326)">
	<g>
		<path class="st0" d="M642.1-665L-4.3-316.4"/>
	</g>
</g>
<g transform="matrix(0.2843453148946436, 0, 0, 0.2843453148946436, 334.94751100504465, 336.75851164672326)">
	<g>
		<path class="st0" d="M-316.8-660.1l236,326.2"/>
	</g>
</g>
<g transform="matrix(0.2843453148946436, 0, 0, 0.2843453148946436, 334.94751100504465, 336.75851164672326)">
	<g>
		<path class="st0" d="M724.6-664.4L-3.2-314.3"/>
	</g>
</g>
<g transform="matrix(0.2843453148946436, 0, 0, 0.2843453148946436, 334.94751100504465, 336.75851164672326)">
	<g>
		<path class="st0" d="M947.1-664.4l41,365.6"/>
	</g>
</g>
<g transform="matrix(0.2843453148946436, 0, 0, 0.2843453148946436, 334.94751100504465, 336.75851164672326)">
	<g>
		<path class="st0" d="M-363.8-655.9l52.2,352.9"/>
	</g>
</g>
<g transform="matrix(0.2843453148946436, 0, 0, 0.2843453148946436, 334.94751100504465, 336.75851164672326)">
	<g>
		<path class="st0" d="M-908.3-664.5l588.6,366.7"/>
	</g>
</g>
<g transform="matrix(0.2843453148946436, 0, 0, 0.2843453148946436, 334.94751100504465, 336.75851164672326)">
	<g>
		<path class="st0" d="M-282.3-653.7l-26.8,350.6"/>
	</g>
</g>
<g transform="matrix(0.2843453148946436, 0, 0, 0.2843453148946436, 334.94751100504465, 336.75851164672326)">
	<g>
		<path class="st0" d="M-323.1-658l12.7,354.8"/>
	</g>
</g>
<g transform="matrix(0.2843453148946436, 0, 0, 0.2843453148946436, 334.94751100504465, 336.75851164672326)">
	<g>
		<path class="st0" d="M861.3-664.4l-45,367.8"/>
	</g>
</g>
<g transform="matrix(0.2843453148946436, 0, 0, 0.2843453148946436, 334.94751100504465, 336.75851164672326)">
	<g>
		<path class="st0" d="M-158-663.4l-233.6,363.9"/>
	</g>
</g>
<g transform="matrix(0.2843453148946436, 0, 0, 0.2843453148946436, 334.94751100504465, 336.75851164672326)">
	<g>
		<path class="st0" d="M-202.1-662l-278.1,366.3"/>
	</g>
</g>
<g transform="matrix(0.2843453148946436, 0, 0, 0.2843453148946436, 334.94751100504465, 336.75851164672326)">
	<g>
		<path class="st0" d="M816.5-662.9l-171,364.7"/>
	</g>
</g>
<g transform="matrix(0.2843453148946436, 0, 0, 0.2843453148946436, 334.94751100504465, 336.75851164672326)">
	<g>
		<path class="st0" d="M812.8-667.3L-387.7-294.4"/>
	</g>
</g>
<g transform="matrix(0.2843453148946436, 0, 0, 0.2843453148946436, 334.94751100504465, 336.75851164672326)">
	<g>
		<path class="st0" d="M775.8-658l-46,361.4"/>
	</g>
</g>
<g transform="matrix(0.2843453148946436, 0, 0, 0.2843453148946436, 334.94751100504465, 336.75851164672326)">
	<g>
		<path class="st0" d="M-231.2-664l523.3,369.4"/>
	</g>
</g>
<g transform="matrix(0.2843453148946436, 0, 0, 0.2843453148946436, 334.94751100504465, 336.75851164672326)">
	<g>
		<path class="st0" d="M-242.4-660.8L-393-300.3"/>
	</g>
</g>
<g transform="matrix(0.2843453148946436, 0, 0, 0.2843453148946436, 334.94751100504465, 336.75851164672326)">
	<g>
		<path class="st0" d="M732.2-658.3l-88,359.6"/>
	</g>
</g>
<g transform="matrix(0.2843453148946436, 0, 0, 0.2843453148946436, 334.94751100504465, 336.75851164672326)">
	<g>
		<path class="st0" d="M725.2-663.4L129.1-295.4"/>
	</g>
</g>
<g transform="matrix(0.2843453148946436, 0, 0, 0.2843453148946436, 334.94751100504465, 336.75851164672326)">
	<g>
		<path class="st0" d="M681.3-661.9L128.9-295.6"/>
	</g>
</g>
<g transform="matrix(0.2843453148946436, 0, 0, 0.2843453148946436, 334.94751100504465, 336.75851164672326)">
	<g>
		<path class="st1" d="M574.9-669.4c0,5.1-4.2,9.3-9.3,9.3s-9.3-4.2-9.3-9.3s4.2-9.3,9.3-9.3S574.9-674.5,574.9-669.4z"/>
	</g>
</g>
<g transform="matrix(0.2843453148946436, 0, 0, 0.2843453148946436, 489.4448127600133, 147.93060891255712)">
	<text transform="matrix(3.5169 0 0 3.5169 1.717983e-03 2.147479e-04)" class="st2 st3">CXCL8</text>
</g>
<g transform="matrix(0.2843453148946436, 0, 0, 0.2843453148946436, 334.94751100504465, 336.75851164672326)">
	<g>
		<path class="st1" d="M-477.1-669.4c0,8.7-7,15.7-15.7,15.7c-8.7,0-15.7-7-15.7-15.7c0-8.7,7-15.7,15.7-15.7
			C-484.1-685.1-477.1-678-477.1-669.4z"/>
	</g>
</g>
<g transform="matrix(0.2843453148946436, 0, 0, 0.2843453148946436, 188.49004526062487, 147.93060891255712)">
	<text transform="matrix(3.5169 0 0 3.5169 -1.072311e-03 2.147479e-04)" class="st2 st3">CCL13</text>
</g>
<g transform="matrix(0.2843453148946436, 0, 0, 0.2843453148946436, 334.94751100504465, 336.75851164672326)">
	<g>
		<path class="st1" d="M530.4-669.4c0,3.9-3.2,7.1-7.1,7.1c-3.9,0-7.1-3.2-7.1-7.1s3.2-7.1,7.1-7.1
			C527.2-676.5,530.4-673.3,530.4-669.4z"/>
	</g>
</g>
<g transform="matrix(0.2843453148946436, 0, 0, 0.2843453148946436, 477.40711702636963, 147.93060891255712)">
	<text transform="matrix(3.5169 0 0 3.5169 4.310345e-04 2.147479e-04)" class="st2 st3">CXCL7</text>
</g>
<g transform="matrix(0.2843453148946436, 0, 0, 0.2843453148946436, 334.94751100504465, 336.75851164672326)">
	<g>
		<path class="st1" d="M-519.4-669.4c0,8.7-7,15.7-15.7,15.7s-15.7-7-15.7-15.7c0-8.7,7-15.7,15.7-15.7S-519.4-678-519.4-669.4z"/>
	</g>
</g>
<g transform="matrix(0.2843453148946436, 0, 0, 0.2843453148946436, 176.45236688204187, 147.93060891255712)">
	<text transform="matrix(3.5169 0 0 3.5169 -7.510682e-04 2.147479e-04)" class="st2 st3">CCL11</text>
</g>
<g transform="matrix(0.2843453148946436, 0, 0, 0.2843453148946436, 334.94751100504465, 336.75851164672326)">
	<g>
		<path class="st1" d="M485.9-669.4c0,2.8-2.2,5-5,5s-5-2.2-5-5s2.2-5,5-5S485.9-672.1,485.9-669.4z"/>
	</g>
</g>
<g transform="matrix(0.2843453148946436, 0, 0, 0.2843453148946436, 465.36943864778664, 147.93060891255712)">
	<text transform="matrix(3.5169 0 0 3.5169 -1.073959e-03 2.147479e-04)" class="st2 st3">CXCL6</text>
</g>
<g transform="matrix(0.2843453148946436, 0, 0, 0.2843453148946436, 334.94751100504465, 336.75851164672326)">
	<g>
		<path class="st1" d="M-563.9-669.4c0,7.5-6.1,13.6-13.6,13.6c-7.5,0-13.6-6.1-13.6-13.6s6.1-13.6,13.6-13.6
			C-570-682.9-563.9-676.9-563.9-669.4z"/>
	</g>
</g>
<g transform="matrix(0.2843453148946436, 0, 0, 0.2843453148946436, 165.67326015207001, 147.93060891255712)">
	<text transform="matrix(3.5169 0 0 3.5169 2.667314e-04 2.147479e-04)" class="st2 st3">CCL8</text>
</g>
<g transform="matrix(0.2843453148946436, 0, 0, 0.2843453148946436, 334.94751100504465, 336.75851164672326)">
	<g>
		<path class="st1" d="M447.9-669.4c0,5.1-4.2,9.3-9.3,9.3c-5.1,0-9.3-4.2-9.3-9.3s4.2-9.3,9.3-9.3
			C443.7-678.7,447.9-674.5,447.9-669.4z"/>
	</g>
</g>
<g transform="matrix(0.2843453148946436, 0, 0, 0.2843453148946436, 453.3317515916733, 147.93060891255712)">
	<text transform="matrix(3.5169 0 0 3.5169 9.644973e-04 2.147479e-04)" class="st2 st3">CXCL5</text>
</g>
<g transform="matrix(0.2843453148946436, 0, 0, 0.2843453148946436, 334.94751100504465, 336.75851164672326)">
	<g>
		<path class="st1" d="M-601.9-669.4c0,9.9-8,17.9-17.9,17.9s-17.9-8-17.9-17.9c0-9.9,8-17.9,17.9-17.9S-601.9-679.2-601.9-669.4z"
			/>
	</g>
</g>
<g transform="matrix(0.2843453148946436, 0, 0, 0.2843453148946436, 153.63558177348705, 147.93060891255712)">
	<text transform="matrix(3.5169 0 0 3.5169 -1.125723e-03 2.147479e-04)" class="st2 st3">CCL7</text>
</g>
<g transform="matrix(0.2843453148946436, 0, 0, 0.2843453148946436, 334.94751100504465, 336.75851164672326)">
	<g>
		<path class="st1" d="M361-669.4c0,3.9-3.2,7.1-7.1,7.1s-7.1-3.2-7.1-7.1s3.2-7.1,7.1-7.1S361-673.3,361-669.4z"/>
	</g>
</g>
<g transform="matrix(0.2843453148946436, 0, 0, 0.2843453148946436, 429.256386156977, 147.93060891255712)">
	<text transform="matrix(3.5169 0 0 3.5169 -1.823929e-03 2.147479e-04)" class="st2 st3">CXCL4</text>
</g>
<g transform="matrix(0.2843453148946436, 0, 0, 0.2843453148946436, 334.94751100504465, 336.75851164672326)">
	<g>
		<path class="st1" d="M584.5-291.7c0,15.8-12.8,28.6-28.6,28.6c-15.8,0-28.6-12.8-28.6-28.6c0-15.8,12.8-28.6,28.6-28.6
			C571.7-320.3,584.5-307.5,584.5-291.7z"/>
	</g>
</g>
<g transform="matrix(0.2843453148946436, 0, 0, 0.2843453148946436, 486.5116860123083, 255.32115612089757)">
	<text transform="matrix(3.5169 0 0 3.5169 1.081433e-04 4.820289e-04)" class="st2 st3">CXCR3</text>
</g>
<g transform="matrix(0.2843453148946436, 0, 0, 0.2843453148946436, 334.94751100504465, 336.75851164672326)">
	<g>
		<path class="st1" d="M401.2-669.4c0,2.8-2.2,5-5,5s-5-2.2-5-5s2.2-5,5-5S401.2-672.1,401.2-669.4z"/>
	</g>
</g>
<g transform="matrix(0.2843453148946436, 0, 0, 0.2843453148946436, 438.9741788585216, 147.93060891255712)">
	<text transform="matrix(3.5169 0 0 3.5169 1.503016e-03 2.147479e-04)" class="st2 st3">CXCL4L1</text>
</g>
<g transform="matrix(0.2843453148946436, 0, 0, 0.2843453148946436, 334.94751100504465, 336.75851164672326)">
	<g>
		<path class="st1" d="M-644.3-669.4c0,9.9-8,17.9-17.9,17.9s-17.9-8-17.9-17.9c0-9.9,8-17.9,17.9-17.9S-644.3-679.2-644.3-669.4z"
			/>
	</g>
</g>
<g transform="matrix(0.2843453148946436, 0, 0, 0.2843453148946436, 141.59790339490405, 147.93060891255712)">
	<text transform="matrix(3.5169 0 0 3.5169 -8.572333e-04 2.147479e-04)" class="st2 st3">CCL5</text>
</g>
<g transform="matrix(0.2843453148946436, 0, 0, 0.2843453148946436, 334.94751100504465, 336.75851164672326)">
	<g>
		<path class="st1" d="M276.4-669.4c0,3.9-3.2,7.1-7.1,7.1s-7.1-3.2-7.1-7.1s3.2-7.1,7.1-7.1S276.4-673.3,276.4-669.4z"/>
	</g>
</g>
<g transform="matrix(0.2843453148946436, 0, 0, 0.2843453148946436, 405.1810120447503, 147.93060891255712)">
	<text transform="matrix(3.5169 0 0 3.5169 -1.181443e-03 2.147479e-04)" class="st2 st3">CXCL3</text>
</g>
<g transform="matrix(0.2843453148946436, 0, 0, 0.2843453148946436, 334.94751100504465, 336.75851164672326)">
	<g>
		<path class="st1" d="M-737.5-669.4c0,5.1-4.2,9.3-9.3,9.3s-9.3-4.2-9.3-9.3s4.2-9.3,9.3-9.3S-737.5-674.5-737.5-669.4z"/>
	</g>
</g>
<g transform="matrix(0.2843453148946436, 0, 0, 0.2843453148946436, 117.52252928267737, 147.93060891255712)">
	<text transform="matrix(3.5169 0 0 3.5169 -2.428828e-04 2.147479e-04)" class="st2 st3">CCL4</text>
</g>
<g transform="matrix(0.2843453148946436, 0, 0, 0.2843453148946436, 334.94751100504465, 336.75851164672326)">
	<g>
		<path class="st1" d="M234-669.4c0,3.9-3.2,7.1-7.1,7.1c-3.9,0-7.1-3.2-7.1-7.1s3.2-7.1,7.1-7.1C230.8-676.5,234-673.3,234-669.4z"
			/>
	</g>
</g>
<g transform="matrix(0.2843453148946436, 0, 0, 0.2843453148946436, 393.14332498863695, 147.93060891255712)">
	<text transform="matrix(3.5169 0 0 3.5169 -2.577415e-03 2.147479e-04)" class="st2 st3">CXCL2</text>
</g>
<g transform="matrix(0.2843453148946436, 0, 0, 0.2843453148946436, 334.94751100504465, 336.75851164672326)">
	<g>
		<path class="st1" d="M-695.2-669.4c0,5.1-4.2,9.3-9.3,9.3s-9.3-4.2-9.3-9.3s4.2-9.3,9.3-9.3S-695.2-674.5-695.2-669.4z"/>
	</g>
</g>
<g transform="matrix(0.2843453148946436, 0, 0, 0.2843453148946436, 127.24032198422199, 147.93060891255712)">
	<text transform="matrix(3.5169 0 0 3.5169 -2.940970e-04 2.147479e-04)" class="st2 st3">CCL4L1</text>
</g>
<g transform="matrix(0.2843453148946436, 0, 0, 0.2843453148946436, 334.94751100504465, 336.75851164672326)">
	<g>
		<path class="st1" d="M482.9-291.7c0,7.5-6.1,13.6-13.6,13.6c-7.5,0-13.6-6.1-13.6-13.6c0-7.5,6.1-13.6,13.6-13.6
			C476.9-305.3,482.9-299.2,482.9-291.7z"/>
	</g>
</g>
<g transform="matrix(0.2843453148946436, 0, 0, 0.2843453148946436, 461.88914154558955, 255.32115612089757)">
	<text transform="matrix(3.5169 0 0 3.5169 -1.611159e-03 4.820289e-04)" class="st2 st3">CXCR2</text>
</g>
<g transform="matrix(0.2843453148946436, 0, 0, 0.2843453148946436, 334.94751100504465, 336.75851164672326)">
	<g>
		<path class="st1" d="M-644.9-291.7c0,6.3-5.1,11.4-11.4,11.4c-6.3,0-11.4-5.1-11.4-11.4c0-6.3,5.1-11.4,11.4-11.4
			C-650.1-303.1-644.9-298-644.9-291.7z"/>
	</g>
</g>
<g transform="matrix(0.2843453148946436, 0, 0, 0.2843453148946436, 143.04210477301427, 255.32115612089757)">
	<text transform="matrix(3.5169 0 0 3.5169 -3.756440e-04 4.820289e-04)" class="st2 st3">CCR4</text>
</g>
<g transform="matrix(0.2843453148946436, 0, 0, 0.2843453148946436, 334.94751100504465, 336.75851164672326)">
	<g>
		<path class="st1" d="M396.3-291.7c0,7.5-6.1,13.6-13.6,13.6s-13.6-6.1-13.6-13.6c0-7.5,6.1-13.6,13.6-13.6
			S396.3-299.2,396.3-291.7z"/>
	</g>
</g>
<g transform="matrix(0.2843453148946436, 0, 0, 0.2843453148946436, 437.2665970788708, 255.32115612089757)">
	<text transform="matrix(3.5169 0 0 3.5169 0 4.820289e-04)" class="st2 st3">CXCR1</text>
</g>
<g transform="matrix(0.2843453148946436, 0, 0, 0.2843453148946436, 334.94751100504465, 336.75851164672326)">
	<g>
		<path class="st1" d="M-820-669.4c0,6.3-5.1,11.4-11.4,11.4s-11.4-5.1-11.4-11.4s5.1-11.4,11.4-11.4S-820-675.7-820-669.4z"/>
	</g>
</g>
<g transform="matrix(0.2843453148946436, 0, 0, 0.2843453148946436, 93.44715517045069, 147.93060891255712)">
	<text transform="matrix(3.5169 0 0 3.5169 3.749846e-04 2.147479e-04)" class="st2 st3">CCL3</text>
</g>
<g transform="matrix(0.2843453148946436, 0, 0, 0.2843453148946436, 334.94751100504465, 336.75851164672326)">
	<g>
		<path class="st1" d="M193.8-669.4c0,5.1-4.2,9.3-9.3,9.3c-5.1,0-9.3-4.2-9.3-9.3s4.2-9.3,9.3-9.3
			C189.7-678.7,193.8-674.5,193.8-669.4z"/>
	</g>
</g>
<g transform="matrix(0.2843453148946436, 0, 0, 0.2843453148946436, 381.1056379325236, 147.93060891255712)">
	<text transform="matrix(3.5169 0 0 3.5169 -6.444636e-04 2.147479e-04)" class="st2 st3">CXCL1</text>
</g>
<g transform="matrix(0.2843453148946436, 0, 0, 0.2843453148946436, 334.94751100504465, 336.75851164672326)">
	<g>
		<path class="st1" d="M65-291.7c0,15.8-12.8,28.6-28.6,28.6S7.8-275.9,7.8-291.7c0-15.8,12.8-28.6,28.6-28.6S65-307.5,65-291.7z"/>
	</g>
</g>
<g transform="matrix(0.2843453148946436, 0, 0, 0.2843453148946436, 338.7268856993081, 255.32115612089757)">
	<text transform="matrix(3.5169 0 0 3.5169 -1.179905e-03 4.820289e-04)" class="st2 st3">ACKR2</text>
</g>
<g transform="matrix(0.2843453148946436, 0, 0, 0.2843453148946436, 334.94751100504465, 336.75851164672326)">
	<g>
		<path class="st1" d="M149.4-669.4c0,3.9-3.2,7.1-7.1,7.1c-3.9,0-7.1-3.2-7.1-7.1s3.2-7.1,7.1-7.1
			C146.2-676.5,149.4-673.3,149.4-669.4z"/>
	</g>
</g>
<g transform="matrix(0.2843453148946436, 0, 0, 0.2843453148946436, 369.0553250697339, 147.93060891255712)">
	<text transform="matrix(3.5169 0 0 3.5169 -2.252545e-03 2.147479e-04)" class="st2 st3">CCL28</text>
</g>
<g transform="matrix(0.2843453148946436, 0, 0, 0.2843453148946436, 334.94751100504465, 336.75851164672326)">
	<g>
		<path class="st1" d="M-536.9-291.7c0,18.1-14.7,32.9-32.9,32.9c-18.1,0-32.9-14.7-32.9-32.9c0-18.1,14.7-32.9,32.9-32.9
			C-551.6-324.5-536.9-309.8-536.9-291.7z"/>
	</g>
</g>
<g transform="matrix(0.2843453148946436, 0, 0, 0.2843453148946436, 167.66464923973305, 255.32115612089757)">
	<text transform="matrix(3.5169 0 0 3.5169 -3.208031e-04 4.820289e-04)" class="st2 st3">CCR5</text>
</g>
<g transform="matrix(0.2843453148946436, 0, 0, 0.2843453148946436, 334.94751100504465, 336.75851164672326)">
	<g>
		<path class="st1" d="M-129.7-291.7c0,3.9-3.2,7.1-7.1,7.1c-3.9,0-7.1-3.2-7.1-7.1s3.2-7.1,7.1-7.1
			C-132.9-298.8-129.7-295.6-129.7-291.7z"/>
	</g>
</g>
<g transform="matrix(0.2843453148946436, 0, 0, 0.2843453148946436, 289.5187435207684, 255.32114744336724)">
	<text transform="matrix(3.5169 0 0 3.5169 -6.446834e-04 4.820289e-04)" class="st2 st3">CCR10</text>
</g>
<g transform="matrix(0.2843453148946436, 0, 0, 0.2843453148946436, 334.94751100504465, 336.75851164672326)">
	<g>
		<path class="st1" d="M-712.2-291.7c0,17-13.7,30.7-30.7,30.7c-17,0-30.7-13.7-30.7-30.7c0-17,13.7-30.7,30.7-30.7
			C-726-322.4-712.2-308.7-712.2-291.7z"/>
	</g>
</g>
<g transform="matrix(0.2843453148946436, 0, 0, 0.2843453148946436, 118.41956030629552, 255.32115612089757)">
	<text transform="matrix(3.5169 0 0 3.5169 -4.551029e-04 4.820289e-04)" class="st2 st3">CCR3</text>
</g>
<g transform="matrix(0.2843453148946436, 0, 0, 0.2843453148946436, 334.94751100504465, 336.75851164672326)">
	<g>
		<path class="st1" d="M104.9-669.4c0,2.8-2.2,5-5,5s-5-2.2-5-5s2.2-5,5-5S104.9-672.1,104.9-669.4z"/>
	</g>
</g>
<g transform="matrix(0.2843453148946436, 0, 0, 0.2843453148946436, 357.01763801362057, 147.93060891255712)">
	<text transform="matrix(3.5169 0 0 3.5169 -2.140885e-04 2.147479e-04)" class="st2 st3">CCL27</text>
</g>
<g transform="matrix(0.2843453148946436, 0, 0, 0.2843453148946436, 334.94751100504465, 336.75851164672326)">
	<g>
		<path class="st1" d="M-805.3-291.7c0,13.4-10.9,24.3-24.3,24.3c-13.4,0-24.3-10.9-24.3-24.3S-843-316-829.6-316
			C-816.1-316-805.3-305.1-805.3-291.7z"/>
	</g>
</g>
<g transform="matrix(0.2843453148946436, 0, 0, 0.2843453148946436, 93.79703319463746, 255.32114744336724)">
	<text transform="matrix(3.5169 0 0 3.5169 -5.626967e-04 4.820289e-04)" class="st2 st3">CCR2</text>
</g>
<g transform="matrix(0.2843453148946436, 0, 0, 0.2843453148946436, 334.94751100504465, 336.75851164672326)">
	<g>
		<path class="st1" d="M909.2-669.4c0,2.8-2.2,5-5,5s-5-2.2-5-5s2.2-5,5-5S909.2-672.1,909.2-669.4z"/>
	</g>
</g>
<g transform="matrix(0.2843453148946436, 0, 0, 0.2843453148946436, 584.4877028501874, 147.93060891255712)">
	<text transform="matrix(3.5169 0 0 3.5169 1.931632e-03 2.147479e-04)" class="st2 st3">CXCL17</text>
</g>
<g transform="matrix(0.2843453148946436, 0, 0, 0.2843453148946436, 334.94751100504465, 336.75851164672326)">
	<g>
		<path class="st1" d="M909.5-291.7c0,3.9-3.2,7.1-7.1,7.1c-3.9,0-7.1-3.2-7.1-7.1s3.2-7.1,7.1-7.1
			C906.3-298.8,909.5-295.6,909.5-291.7z"/>
	</g>
</g>
<g transform="matrix(0.2843453148946436, 0, 0, 0.2843453148946436, 583.7432401653901, 255.32114744336724)">
	<text transform="matrix(3.5169 0 0 3.5169 -2.143083e-04 4.820289e-04)" class="st2 st3">CX3CR1</text>
</g>
<g transform="matrix(0.2843453148946436, 0, 0, 0.2843453148946436, 334.94751100504465, 336.75851164672326)">
	<g>
		<path class="st1" d="M-887.6-291.7c0,15.8-12.8,28.6-28.6,28.6c-15.8,0-28.6-12.8-28.6-28.6c0-15.8,12.8-28.6,28.6-28.6
			C-900.4-320.3-887.6-307.5-887.6-291.7z"/>
	</g>
</g>
<g transform="matrix(0.2843453148946436, 0, 0, 0.2843453148946436, 69.17448872791871, 255.32115612089757)">
	<text transform="matrix(3.5169 0 0 3.5169 -6.175376e-04 4.820289e-04)" class="st2 st3">CCR1</text>
</g>
<g transform="matrix(0.2843453148946436, 0, 0, 0.2843453148946436, 334.94751100504465, 336.75851164672326)">
	<g>
		<path class="st1" d="M69-669.4c0,6.3-5.1,11.4-11.4,11.4s-11.4-5.1-11.4-11.4s5.1-11.4,11.4-11.4S69-675.7,69-669.4z"/>
	</g>
</g>
<g transform="matrix(0.2843453148946436, 0, 0, 0.2843453148946436, 344.97995204219853, 147.93060891255712)">
	<text transform="matrix(3.5169 0 0 3.5169 1.824368e-03 2.147479e-04)" class="st2 st3">CCL26</text>
</g>
<g transform="matrix(0.2843453148946436, 0, 0, 0.2843453148946436, 334.94751100504465, 336.75851164672326)">
	<g>
		<path class="st1" d="M-858.1-669.4c0,8.7-7,15.7-15.7,15.7c-8.7,0-15.7-7-15.7-15.7c0-8.7,7-15.7,15.7-15.7
			C-865.1-685.1-858.1-678-858.1-669.4z"/>
	</g>
</g>
<g transform="matrix(0.2843453148946436, 0, 0, 0.2843453148946436, 81.40947679186772, 147.93060891255712)">
	<text transform="matrix(3.5169 0 0 3.5169 -1.045605e-03 2.147479e-04)" class="st2 st3">CCL2</text>
</g>
<g transform="matrix(0.2843453148946436, 0, 0, 0.2843453148946436, 334.94751100504465, 336.75851164672326)">
	<g>
		<path class="st1" d="M-784.1-669.4c0,2.8-2.2,5-5,5s-5-2.2-5-5s2.2-5,5-5S-784.1-672.1-784.1-669.4z"/>
	</g>
</g>
<g transform="matrix(0.2843453148946436, 0, 0, 0.2843453148946436, 103.16496522705603, 147.93060891255712)">
	<text transform="matrix(3.5169 0 0 3.5169 2.675008e-04 2.147479e-04)" class="st2 st3">CCL3L1</text>
</g>
<g transform="matrix(0.2843453148946436, 0, 0, 0.2843453148946436, 334.94751100504465, 336.75851164672326)">
	<g>
		<path class="st1" d="M-218.4-291.7c0,2.8-2.2,5-5,5s-5-2.2-5-5s2.2-5,5-5S-218.4-294.5-218.4-291.7z"/>
	</g>
</g>
<g transform="matrix(0.2843453148946436, 0, 0, 0.2843453148946436, 266.15479673525186, 255.32114744336724)">
	<text transform="matrix(3.5169 0 0 3.5169 0 4.820289e-04)" class="st2 st3">CCR9</text>
</g>
<g transform="matrix(0.2843453148946436, 0, 0, 0.2843453148946436, 334.94751100504465, 336.75851164672326)">
	<g>
		<path class="st1" d="M227.4-291.7c0,9.9-8,17.9-17.9,17.9c-9.9,0-17.9-8-17.9-17.9c0-9.9,8-17.9,17.9-17.9
			C219.4-309.6,227.4-301.6,227.4-291.7z"/>
	</g>
</g>
<g transform="matrix(0.2843453148946436, 0, 0, 0.2843453148946436, 387.9719594470675, 255.32115612089757)">
	<text transform="matrix(3.5169 0 0 3.5169 -9.647172e-04 4.820289e-04)" class="st2 st3">ACKR4</text>
</g>
<g transform="matrix(0.2843453148946436, 0, 0, 0.2843453148946436, 334.94751100504465, 336.75851164672326)">
	<g>
		<path class="st1" d="M993.9-669.4c0,2.8-2.2,5-5,5s-5-2.2-5-5s2.2-5,5-5S993.9-672.1,993.9-669.4z"/>
	</g>
</g>
<g transform="matrix(0.2843453148946436, 0, 0, 0.2843453148946436, 611.1988073895603, 147.93060891255712)">
	<text transform="matrix(3.5169 0 0 3.5169 1.500818e-03 2.147479e-04)" class="st2 st3">XCL2</text>
</g>
<g transform="matrix(0.2843453148946436, 0, 0, 0.2843453148946436, 334.94751100504465, 336.75851164672326)">
	<g>
		<path class="st1" d="M22.4-669.4c0,3.9-3.2,7.1-7.1,7.1s-7.1-3.2-7.1-7.1s3.2-7.1,7.1-7.1S22.4-673.3,22.4-669.4z"/>
	</g>
</g>
<g transform="matrix(0.2843453148946436, 0, 0, 0.2843453148946436, 332.9422676978134, 147.93060891255712)">
	<text transform="matrix(3.5169 0 0 3.5169 4.283968e-04 2.147479e-04)" class="st2 st3">CCL25</text>
</g>
<g transform="matrix(0.2843453148946436, 0, 0, 0.2843453148946436, 334.94751100504465, 336.75851164672326)">
	<g>
		<path class="st1" d="M1.9-291.7c0,28.8-23.3,52.1-52.1,52.1s-52.1-23.3-52.1-52.1c0-28.8,23.3-52.1,52.1-52.1S1.9-320.5,1.9-291.7
			z"/>
	</g>
</g>
<g transform="matrix(0.2843453148946436, 0, 0, 0.2843453148946436, 314.1043488254284, 255.32115612089757)">
	<text transform="matrix(3.5169 0 0 3.5169 -2.899207e-03 4.820289e-04)" class="st2 st3">ACKR1</text>
</g>
<g transform="matrix(0.2843453148946436, 0, 0, 0.2843453148946436, 334.94751100504465, 336.75851164672326)">
	<g>
		<path class="st1" d="M996.1-291.7c0,3.9-3.2,7.1-7.1,7.1c-3.9,0-7.1-3.2-7.1-7.1s3.2-7.1,7.1-7.1
			C992.9-298.8,996.1-295.6,996.1-291.7z"/>
	</g>
</g>
<g transform="matrix(0.2843453148946436, 0, 0, 0.2843453148946436, 611.0015150592551, 255.32114744336724)">
	<text transform="matrix(3.5169 0 0 3.5169 1.502136e-03 4.820289e-04)" class="st2 st3">XCR1</text>
</g>
<g transform="matrix(0.2843453148946436, 0, 0, 0.2843453148946436, 334.94751100504465, 336.75851164672326)">
	<g>
		<path class="st1" d="M-20-669.4c0,3.9-3.2,7.1-7.1,7.1s-7.1-3.2-7.1-7.1s3.2-7.1,7.1-7.1S-20-673.3-20-669.4z"/>
	</g>
</g>
<g transform="matrix(0.2843453148946436, 0, 0, 0.2843453148946436, 320.90458226873704, 147.93060891255712)">
	<text transform="matrix(3.5169 0 0 3.5169 -9.675746e-04 2.147479e-04)" class="st2 st3">CCL24</text>
</g>
<g transform="matrix(0.2843453148946436, 0, 0, 0.2843453148946436, 334.94751100504465, 336.75851164672326)">
	<g>
		<path class="st1" d="M-298.6-291.7c0,6.3-5.1,11.4-11.4,11.4s-11.4-5.1-11.4-11.4c0-6.3,5.1-11.4,11.4-11.4
			S-298.6-298-298.6-291.7z"/>
	</g>
</g>
<g transform="matrix(0.2843453148946436, 0, 0, 0.2843453148946436, 241.53225660729825, 255.32115612089757)">
	<text transform="matrix(3.5169 0 0 3.5169 -1.070443e-04 4.820289e-04)" class="st2 st3">CCR8</text>
</g>
<g transform="matrix(0.2843453148946436, 0, 0, 0.2843453148946436, 334.94751100504465, 336.75851164672326)">
	<g>
		<path class="st1" d="M951.6-669.4c0,2.8-2.2,5-5,5s-5-2.2-5-5s2.2-5,5-5S951.6-672.1,951.6-669.4z"/>
	</g>
</g>
<g transform="matrix(0.2843453148946436, 0, 0, 0.2843453148946436, 599.1611290109773, 147.93060891255712)">
	<text transform="matrix(3.5169 0 0 3.5169 0 2.147479e-04)" class="st2 st3">XCL1</text>
</g>
<g transform="matrix(0.2843453148946436, 0, 0, 0.2843453148946436, 334.94751100504465, 336.75851164672326)">
	<g>
		<path class="st1" d="M-64.5-669.4c0,2.8-2.2,5-5,5c-2.8,0-5-2.2-5-5s2.2-5,5-5C-66.7-674.4-64.5-672.1-64.5-669.4z"/>
	</g>
</g>
<g transform="matrix(0.2843453148946436, 0, 0, 0.2843453148946436, 308.86689846669753, 147.93060891255712)">
	<text transform="matrix(3.5169 0 0 3.5169 9.653766e-04 2.147479e-04)" class="st2 st3">CCL23</text>
</g>
<g transform="matrix(0.2843453148946436, 0, 0, 0.2843453148946436, 334.94751100504465, 336.75851164672326)">
	<g>
		<path class="st1" d="M-906.9-669.4c0,5.1-4.2,9.3-9.3,9.3s-9.3-4.2-9.3-9.3s4.2-9.3,9.3-9.3S-906.9-674.5-906.9-669.4z"/>
	</g>
</g>
<g transform="matrix(0.2843453148946436, 0, 0, 0.2843453148946436, 69.37178105822403, 147.93060891255712)">
	<text transform="matrix(3.5169 0 0 3.5169 -6.962273e-04 2.147479e-04)" class="st2 st3">CCL1</text>
</g>
<g transform="matrix(0.2843453148946436, 0, 0, 0.2843453148946436, 334.94751100504465, 336.75851164672326)">
	<g>
		<path class="st1" d="M316.6-669.4c0,2.8-2.2,5-5,5s-5-2.2-5-5s2.2-5,5-5S316.6-672.1,316.6-669.4z"/>
	</g>
</g>
<g transform="matrix(0.2843453148946436, 0, 0, 0.2843453148946436, 415.96011009719183, 147.93060891255712)">
	<text transform="matrix(3.5169 0 0 3.5169 -5.382986e-04 2.147479e-04)" class="st2 st3">CX3CL1</text>
</g>
<g transform="matrix(0.2843453148946436, 0, 0, 0.2843453148946436, 334.94751100504465, 336.75851164672326)">
	<g>
		<path class="st1" d="M-102.5-669.4c0,5.1-4.2,9.3-9.3,9.3s-9.3-4.2-9.3-9.3s4.2-9.3,9.3-9.3S-102.5-674.5-102.5-669.4z"/>
	</g>
</g>
<g transform="matrix(0.2843453148946436, 0, 0, 0.2843453148946436, 296.8292135799668, 147.93060891255712)">
	<text transform="matrix(3.5169 0 0 3.5169 -4.305949e-04 2.147479e-04)" class="st2 st3">CCL22</text>
</g>
<g transform="matrix(0.2843453148946436, 0, 0, 0.2843453148946436, 334.94751100504465, 336.75851164672326)">
	<g>
		<path class="st1" d="M820.7-291.7c0,2.8-2.2,5-5,5s-5-2.2-5-5s2.2-5,5-5S820.7-294.5,820.7-291.7z"/>
	</g>
</g>
<g transform="matrix(0.2843453148946436, 0, 0, 0.2843453148946436, 560.3792847023432, 255.32114744336724)">
	<text transform="matrix(3.5169 0 0 3.5169 -1.286290e-03 4.820289e-04)" class="st2 st3">CXCR6</text>
</g>
<g transform="matrix(0.2843453148946436, 0, 0, 0.2843453148946436, 334.94751100504465, 336.75851164672326)">
	<g>
		<path class="st1" d="M-147-669.4c0,3.9-3.2,7.1-7.1,7.1c-3.9,0-7.1-3.2-7.1-7.1s3.2-7.1,7.1-7.1C-150.2-676.5-147-673.3-147-669.4
			z"/>
	</g>
</g>
<g transform="matrix(0.2843453148946436, 0, 0, 0.2843453148946436, 284.79152869323605, 147.93060891255712)">
	<text transform="matrix(3.5169 0 0 3.5169 -1.058353e-04 2.147479e-04)" class="st2 st3">CCL21</text>
</g>
<g transform="matrix(0.2843453148946436, 0, 0, 0.2843453148946436, 334.94751100504465, 336.75851164672326)">
	<g>
		<path class="st1" d="M866.9-669.4c0,2.8-2.2,5-5,5s-5-2.2-5-5s2.2-5,5-5S866.9-672.1,866.9-669.4z"/>
	</g>
</g>
<g transform="matrix(0.2843453148946436, 0, 0, 0.2843453148946436, 572.4500071165437, 147.93060891255712)">
	<text transform="matrix(3.5169 0 0 3.5169 -2.789745e-03 2.147479e-04)" class="st2 st3">CXCL16</text>
</g>
<g transform="matrix(0.2843453148946436, 0, 0, 0.2843453148946436, 334.94751100504465, 336.75851164672326)">
	<g>
		<path class="st1" d="M-478.2-291.7c0,2.8-2.2,5-5,5s-5-2.2-5-5s2.2-5,5-5S-478.2-294.5-478.2-291.7z"/>
	</g>
</g>
<g transform="matrix(0.2843453148946436, 0, 0, 0.2843453148946436, 192.28718502892144, 255.32114744336724)">
	<text transform="matrix(3.5169 0 0 3.5169 -2.694790e-04 4.820289e-04)" class="st2 st3">CCR6</text>
</g>
<g transform="matrix(0.2843453148946436, 0, 0, 0.2843453148946436, 334.94751100504465, 336.75851164672326)">
	<g>
		<path class="st1" d="M826.7-669.4c0,3.9-3.2,7.1-7.1,7.1s-7.1-3.2-7.1-7.1s3.2-7.1,7.1-7.1S826.7-673.3,826.7-669.4z"/>
	</g>
</g>
<g transform="matrix(0.2843453148946436, 0, 0, 0.2843453148946436, 560.4123113829, 147.93060891255712)">
	<text transform="matrix(3.5169 0 0 3.5169 -6.422655e-04 2.147479e-04)" class="st2 st3">CXCL14</text>
</g>
<g transform="matrix(0.2843453148946436, 0, 0, 0.2843453148946436, 334.94751100504465, 336.75851164672326)">
	<g>
		<path class="st1" d="M-187.2-669.4c0,5.1-4.2,9.3-9.3,9.3c-5.1,0-9.3-4.2-9.3-9.3s4.2-9.3,9.3-9.3
			C-191.3-678.7-187.2-674.5-187.2-669.4z"/>
	</g>
</g>
<g transform="matrix(0.2843453148946436, 0, 0, 0.2843453148946436, 272.7538459758879, 147.93060891255712)">
	<text transform="matrix(3.5169 0 0 3.5169 2.154073e-04 2.147479e-04)" class="st2 st3">CCL20</text>
</g>
<g transform="matrix(0.2843453148946436, 0, 0, 0.2843453148946436, 334.94751100504465, 336.75851164672326)">
	<g>
		<path class="st1" d="M734.1-291.7c0,2.8-2.2,5-5,5s-5-2.2-5-5s2.2-5,5-5S734.1-294.5,734.1-291.7z"/>
	</g>
</g>
<g transform="matrix(0.2843453148946436, 0, 0, 0.2843453148946436, 535.7567575906851, 255.32114744336724)">
	<text transform="matrix(3.5169 0 0 3.5169 2.143083e-04 4.820289e-04)" class="st2 st3">CXCR5</text>
</g>
<g transform="matrix(0.2843453148946436, 0, 0, 0.2843453148946436, 334.94751100504465, 336.75851164672326)">
	<g>
		<path class="st1" d="M301.2-291.7c0,2.8-2.2,5-5,5s-5-2.2-5-5s2.2-5,5-5S301.2-294.5,301.2-291.7z"/>
	</g>
</g>
<g transform="matrix(0.2843453148946436, 0, 0, 0.2843453148946436, 412.82871913578094, 255.32114744336724)">
	<text transform="matrix(3.5169 0 0 3.5169 -2.039776e-03 4.820289e-04)" class="st2 st3">CCRL2</text>
</g>
<g transform="matrix(0.2843453148946436, 0, 0, 0.2843453148946436, 334.94751100504465, 336.75851164672326)">
	<g>
		<path class="st1" d="M788.7-669.4c0,6.3-5.1,11.4-11.4,11.4c-6.3,0-11.4-5.1-11.4-11.4s5.1-11.4,11.4-11.4
			C783.6-680.8,788.7-675.7,788.7-669.4z"/>
	</g>
</g>
<g transform="matrix(0.2843453148946436, 0, 0, 0.2843453148946436, 548.374633004317, 147.93060891255712)">
	<text transform="matrix(3.5169 0 0 3.5169 1.287169e-03 2.147479e-04)" class="st2 st3">CXCL13</text>
</g>
<g transform="matrix(0.2843453148946436, 0, 0, 0.2843453148946436, 334.94751100504465, 336.75851164672326)">
	<g>
		<path class="st1" d="M-387.3-291.7c0,5.1-4.2,9.3-9.3,9.3s-9.3-4.2-9.3-9.3c0-5.1,4.2-9.3,9.3-9.3S-387.3-296.8-387.3-291.7z"/>
	</g>
</g>
<g transform="matrix(0.2843453148946436, 0, 0, 0.2843453148946436, 216.90972081810986, 255.32115612089757)">
	<text transform="matrix(3.5169 0 0 3.5169 -1.618852e-04 4.820289e-04)" class="st2 st3">CCR7</text>
</g>
<g transform="matrix(0.2843453148946436, 0, 0, 0.2843453148946436, 334.94751100504465, 336.75851164672326)">
	<g>
		<path class="st1" d="M649.7-291.7c0,3.9-3.2,7.1-7.1,7.1c-3.9,0-7.1-3.2-7.1-7.1s3.2-7.1,7.1-7.1
			C646.5-298.8,649.7-295.6,649.7-291.7z"/>
	</g>
</g>
<g transform="matrix(0.2843453148946436, 0, 0, 0.2843453148946436, 511.1342131239664, 255.32114744336724)">
	<text transform="matrix(3.5169 0 0 3.5169 1.932951e-03 4.820289e-04)" class="st2 st3">CXCR4</text>
</g>
<g transform="matrix(0.2843453148946436, 0, 0, 0.2843453148946436, 334.94751100504465, 336.75851164672326)">
	<g>
		<path class="st1" d="M-229.5-669.4c0,5.1-4.2,9.3-9.3,9.3c-5.1,0-9.3-4.2-9.3-9.3s4.2-9.3,9.3-9.3
			C-233.7-678.7-229.5-674.5-229.5-669.4z"/>
	</g>
</g>
<g transform="matrix(0.2843453148946436, 0, 0, 0.2843453148946436, 260.71615891977456, 147.93060891255712)">
	<text transform="matrix(3.5169 0 0 3.5169 -1.180564e-03 2.147479e-04)" class="st2 st3">CCL19</text>
</g>
<g transform="matrix(0.2843453148946436, 0, 0, 0.2843453148946436, 334.94751100504465, 336.75851164672326)">
	<g>
		<path class="st1" d="M746.3-669.4c0,6.3-5.1,11.4-11.4,11.4s-11.4-5.1-11.4-11.4s5.1-11.4,11.4-11.4S746.3-675.7,746.3-669.4z"/>
	</g>
</g>
<g transform="matrix(0.2843453148946436, 0, 0, 0.2843453148946436, 536.336954625734, 147.93060891255712)">
	<text transform="matrix(3.5169 0 0 3.5169 -2.143083e-04 2.147479e-04)" class="st2 st3">CXCL12</text>
</g>
<g transform="matrix(0.2843453148946436, 0, 0, 0.2843453148946436, 334.94751100504465, 336.75851164672326)">
	<g>
		<path class="st1" d="M-265.4-669.4c0,8.7-7,15.7-15.7,15.7c-8.7,0-15.7-7-15.7-15.7c0-8.7,7-15.7,15.7-15.7
			C-272.4-685.1-265.4-678-265.4-669.4z"/>
	</g>
</g>
<g transform="matrix(0.2843453148946436, 0, 0, 0.2843453148946436, 248.67847186366123, 147.93060891255712)">
	<text transform="matrix(3.5169 0 0 3.5169 -8.593214e-04 2.147479e-04)" class="st2 st3">CCL18</text>
</g>
<g transform="matrix(0.2843453148946436, 0, 0, 0.2843453148946436, 334.94751100504465, 336.75851164672326)">
	<g>
		<path class="st1" d="M130.1-291.7c0,3.9-3.2,7.1-7.1,7.1c-3.9,0-7.1-3.2-7.1-7.1s3.2-7.1,7.1-7.1
			C126.9-298.8,130.1-295.6,130.1-291.7z"/>
	</g>
</g>
<g transform="matrix(0.2843453148946436, 0, 0, 0.2843453148946436, 363.34942365787913, 255.32114744336724)">
	<text transform="matrix(3.5169 0 0 3.5169 6.449032e-04 4.820289e-04)" class="st2 st3">ACKR3</text>
</g>
<g transform="matrix(0.2843453148946436, 0, 0, 0.2843453148946436, 334.94751100504465, 336.75851164672326)">
	<g>
		<path class="st1" d="M-312-669.4c0,6.3-5.1,11.4-11.4,11.4c-6.3,0-11.4-5.1-11.4-11.4s5.1-11.4,11.4-11.4
			C-317.1-680.8-312-675.7-312-669.4z"/>
	</g>
</g>
<g transform="matrix(0.2843453148946436, 0, 0, 0.2843453148946436, 236.64079348507823, 147.93060891255712)">
	<text transform="matrix(3.5169 0 0 3.5169 -5.908316e-04 2.147479e-04)" class="st2 st3">CCL17</text>
</g>
<g transform="matrix(0.2843453148946436, 0, 0, 0.2843453148946436, 334.94751100504465, 336.75851164672326)">
	<g>
		<path class="st1" d="M706.1-669.4c0,7.5-6.1,13.6-13.6,13.6s-13.6-6.1-13.6-13.6s6.1-13.6,13.6-13.6S706.1-676.9,706.1-669.4z"/>
	</g>
</g>
<g transform="matrix(0.2843453148946436, 0, 0, 0.2843453148946436, 524.299276247151, 147.93060891255712)">
	<text transform="matrix(3.5169 0 0 3.5169 -1.501257e-03 2.147479e-04)" class="st2 st3">CXCL11</text>
</g>
<g transform="matrix(0.2843453148946436, 0, 0, 0.2843453148946436, 334.94751100504465, 336.75851164672326)">
	<g>
		<path class="st1" d="M-352.2-669.4c0,7.5-6.1,13.6-13.6,13.6c-7.5,0-13.6-6.1-13.6-13.6s6.1-13.6,13.6-13.6
			C-358.3-682.9-352.2-676.9-352.2-669.4z"/>
	</g>
</g>
<g transform="matrix(0.2843453148946436, 0, 0, 0.2843453148946436, 224.60309775143452, 147.93060891255712)">
	<text transform="matrix(3.5169 0 0 3.5169 -2.695889e-04 2.147479e-04)" class="st2 st3">CCL16</text>
</g>
<g transform="matrix(0.2843453148946436, 0, 0, 0.2843453148946436, 334.94751100504465, 336.75851164672326)">
	<g>
		<path class="st1" d="M659.5-669.4c0,5.1-4.2,9.3-9.3,9.3c-5.1,0-9.3-4.2-9.3-9.3s4.2-9.3,9.3-9.3
			C655.4-678.7,659.5-674.5,659.5-669.4z"/>
	</g>
</g>
<g transform="matrix(0.2843453148946436, 0, 0, 0.2843453148946436, 512.2615978685681, 147.93060891255712)">
	<text transform="matrix(3.5169 0 0 3.5169 4.281770e-04 2.147479e-04)" class="st2 st3">CXCL10</text>
</g>
<g transform="matrix(0.2843453148946436, 0, 0, 0.2843453148946436, 334.94751100504465, 336.75851164672326)">
	<g>
		<path class="st1" d="M-398.8-669.4c0,5.1-4.2,9.3-9.3,9.3c-5.1,0-9.3-4.2-9.3-9.3s4.2-9.3,9.3-9.3
			C-403-678.7-398.8-674.5-398.8-669.4z"/>
	</g>
</g>
<g transform="matrix(0.2843453148946436, 0, 0, 0.2843453148946436, 212.56541937285152, 147.93060891255712)">
	<text transform="matrix(3.5169 0 0 3.5169 5.517065e-05 2.147479e-04)" class="st2 st3">CCL15</text>
</g>
<g transform="matrix(0.2843453148946436, 0, 0, 0.2843453148946436, 334.94751100504465, 336.75851164672326)">
	<g>
		<path class="st1" d="M615-669.4c0,3.9-3.2,7.1-7.1,7.1c-3.9,0-7.1-3.2-7.1-7.1s3.2-7.1,7.1-7.1C611.9-676.5,615-673.3,615-669.4z"
			/>
	</g>
</g>
<g transform="matrix(0.2843453148946436, 0, 0, 0.2843453148946436, 501.4824911385963, 147.93060891255712)">
	<text transform="matrix(3.5169 0 0 3.5169 -2.149677e-04 2.147479e-04)" class="st2 st3">CXCL9</text>
</g>
<g transform="matrix(0.2843453148946436, 0, 0, 0.2843453148946436, 334.94751100504465, 336.75851164672326)">
	<g>
		<path class="st1" d="M-436.9-669.4c0,7.5-6.1,13.6-13.6,13.6c-7.5,0-13.6-6.1-13.6-13.6s6.1-13.6,13.6-13.6
			C-443-682.9-436.9-676.9-436.9-669.4z"/>
	</g>
</g>
<g transform="matrix(0.2843453148946436, 0, 0, 0.2843453148946436, 200.52774099426858, 147.93060891255712)">
	<text transform="matrix(3.5169 0 0 3.5169 3.236605e-04 2.147479e-04)" class="st2 st3">CCL14</text>
</g>
</svg>
